<svg xmlns="http://www.w3.org/2000/svg" viewBox="0 0 200 200" fill="none">
  <!-- Chip body -->
  <rect x="60" y="60" width="80" height="80" rx="5" fill="#1E293B" stroke="#3B82F6" stroke-width="3"/>
  
  <!-- Central processor -->
  <rect x="80" y="80" width="40" height="40" rx="3" fill="#3B82F6"/>
  
  <!-- Circuit lines -->
  <line x1="85" y1="90" x2="115" y2="90" stroke="#60A5FA" stroke-width="2"/>
  <line x1="85" y1="100" x2="115" y2="100" stroke="#60A5FA" stroke-width="2"/>
  <line x1="85" y1="110" x2="115" y2="110" stroke="#60A5FA" stroke-width="2"/>
  
  <!-- Connection points -->
  <circle cx="90" cy="90" r="3" fill="#A78BFA"/>
  <circle cx="110" cy="90" r="3" fill="#A78BFA"/>
  <circle cx="90" cy="110" r="3" fill="#A78BFA"/>
  <circle cx="110" cy="110" r="3" fill="#A78BFA"/>
  <circle cx="100" cy="100" r="5" fill="#60A5FA"/>
  
  <!-- Pins - Top -->
  <rect x="75" y="50" width="3" height="10" fill="#3B82F6"/>
  <rect x="85" y="50" width="3" height="10" fill="#3B82F6"/>
  <rect x="95" y="50" width="3" height="10" fill="#3B82F6"/>
  <rect x="105" y="50" width="3" height="10" fill="#3B82F6"/>
  <rect x="115" y="50" width="3" height="10" fill="#3B82F6"/>
  
  <!-- Pins - Bottom -->
  <rect x="75" y="140" width="3" height="10" fill="#3B82F6"/>
  <rect x="85" y="140" width="3" height="10" fill="#3B82F6"/>
  <rect x="95" y="140" width="3" height="10" fill="#3B82F6"/>
  <rect x="105" y="140" width="3" height="10" fill="#3B82F6"/>
  <rect x="115" y="140" width="3" height="10" fill="#3B82F6"/>
  
  <!-- Pins - Left -->
  <rect x="50" y="75" width="10" height="3" fill="#3B82F6"/>
  <rect x="50" y="85" width="10" height="3" fill="#3B82F6"/>
  <rect x="50" y="95" width="10" height="3" fill="#3B82F6"/>
  <rect x="50" y="105" width="10" height="3" fill="#3B82F6"/>
  <rect x="50" y="115" width="10" height="3" fill="#3B82F6"/>
  
  <!-- Pins - Right -->
  <rect x="140" y="75" width="10" height="3" fill="#3B82F6"/>
  <rect x="140" y="85" width="10" height="3" fill="#3B82F6"/>
  <rect x="140" y="95" width="10" height="3" fill="#3B82F6"/>
  <rect x="140" y="105" width="10" height="3" fill="#3B82F6"/>
  <rect x="140" y="115" width="10" height="3" fill="#3B82F6"/>
</svg>
