<svg xmlns="http://www.w3.org/2000/svg" viewBox="0 0 24 24" fill="currentColor"><path d="M12 .5C5.73.5.75 5.48.75 11.77c0 4.93 3.29 9.11 7.86 10.59.58.11.79-.25.79-.56 0-.27-.01-1-.01-1.96-3.2.7-3.87-1.39-3.87-1.39-.52-1.32-1.27-1.67-1.27-1.67-1.04-.71.08-.69.08-.69 1.15.08 1.75 1.18 1.75 1.18 1.02 1.75 2.68 1.24 3.33.95.1-.74.4-1.24.72-1.53-2.55-.29-5.24-1.28-5.24-5.7 0-1.26.45-2.29 1.18-3.1-.12-.29-.51-1.47.11-3.06 0 0 .96-.31 3.15 1.18a10.9 10.9 0 0 1 2.87-.39c.97 0 1.95.13 2.87.39 2.19-1.49 3.15-1.18 3.15-1.18.62 1.59.23 2.77.11 3.06.73.81 1.18 1.84 1.18 3.1 0 4.43-2.7 5.41-5.27 5.69.41.35.77 1.05.77 2.11 0 1.52-.01 2.75-.01 3.12 0 .31.21.68.8.56C19.96 20.88 23.25 16.7 23.25 11.77 23.25 5.48 18.27.5 12 .5z"/></svg>