<svg xmlns="http://www.w3.org/2000/svg" viewBox="0 0 128 128"><path fill="#5C2D91" d="M75.701 65.603c-2.334-.768-5.694-.603-10.08-.603h-17.621v23h18.844c2.944 0 5.012-.315 6.203-.535 2.099-.383 3.854-1.401 5.264-3.056 1.409-1.655 2.113-3.78 2.113-6.378-.001-2.493-.708-4.533-2.119-6.12-1.409-1.584-3.116-2.531-5.123-2.840l-.481-.468zM73.282 55.087c2.317-.49 4.132-1.318 5.445-2.484.789-.698 1.348-1.566 1.677-2.604.329-1.039.493-2.139.493-3.301 0-2.595-.962-4.567-2.887-5.916-1.925-1.349-4.595-2.024-8.014-2.024h-18.996v16.329h18.478c2.889 0 4.932-.332 6.123-.997l.681-.003zM126.462 0h-125c-.825 0-1.462.637-1.462 1.462v125.076c0 .825.637 1.462 1.462 1.462h125c.825 0 1.462-.637 1.462-1.462v-125.076c0-.825-.637-1.462-1.462-1.462zM94.618 58.848c2.304 1.545 4.123 3.597 5.459 6.156 1.336 2.559 2.004 5.451 2.004 8.676 0 3.225-.668 6.117-2.004 8.676-1.336 2.559-3.155 4.611-5.459 6.156-2.304 1.545-4.97 2.318-7.997 2.318h-32.621v-32h32.621c3.027 0 5.693.773 7.997 2.318z"/><path fill="#fff" d="M40 37h14v14h-14zM54 51h14v14h-14zM40 65h14v14h-14zM54 79h14v14h-14z"/></svg>