<svg xmlns="http://www.w3.org/2000/svg" viewBox="0 0 128 128"><path fill="#3776ab" d="M49.33 62h29.159C86.606 62 93 55.132 93 46.981V19.183c0-7.912-6.632-13.856-14.555-15.176-5.014-.835-10.195-1.215-15.187-1.191-4.99.023-9.612.448-13.805 1.191C37.098 6.188 35 10.758 35 19.183V30h29v4H23.776c-8.484 0-15.914 5.108-18.237 14.811-2.681 11.12-2.8 17.919 0 29.53C7.614 86.983 12.569 93 21.054 93H31V79.952C31 70.315 39.428 62 49.33 62zM45.136 14.963c2.814 0 5.093 2.284 5.093 5.104 0 2.816-2.279 5.097-5.093 5.097-2.81 0-5.09-2.281-5.09-5.097 0-2.82 2.28-5.104 5.09-5.104z"/><path fill="#ffd43b" d="M91.682 35v13.063C91.682 57.7 83.154 66 73.252 66H44.093C36.006 66 29.5 72.967 29.5 81.057V108.855c0 7.913 6.873 12.552 14.555 14.814 9.194 2.703 17.934 3.193 29.159 0 7.442-2.118 14.555-6.378 14.555-14.814V94h-29v-4h43.715c8.484 0 11.647-5.776 14.555-14.811 3.01-9.335 2.888-18.315 0-29.53C114.019 35.776 100.166 35 91.682 35zM82.806 113.137c2.814 0 5.093-2.284 5.093-5.104 0-2.816-2.279-5.097-5.093-5.097-2.81 0-5.09 2.281-5.09 5.097 0 2.82 2.28 5.104 5.09 5.104z"/></svg>