<svg xmlns="http://www.w3.org/2000/svg" viewBox="0 0 128 128"><path fill="#00758F" d="M2 63.91h21.09v18.262c0 4.967.58 9.071 1.74 12.313 1.158 3.24 2.871 5.828 5.138 7.762 2.268 1.934 5.059 3.315 8.378 4.145 3.317.829 7.094 1.244 11.33 1.244s8.015-.415 11.33-1.244c3.319-.83 6.11-2.211 8.379-4.145 2.266-1.934 3.979-4.522 5.137-7.762 1.16-3.242 1.740-7.346 1.740-12.313V63.91H97.35c-.022 4.906-.67 8.819-1.945 11.738-1.275 2.919-3.14 5.059-5.596 6.421-2.456 1.362-5.472 2.043-9.048 2.043s-6.591-.681-9.047-2.043c-2.457-1.362-4.322-3.502-5.596-6.421-1.275-2.919-1.923-6.832-1.945-11.738h21.09V63.91H2z"/><path fill="#00758F" d="M23.15 63.91c.023-4.906.67-8.819 1.946-11.738 1.274-2.919 3.14-5.059 5.595-6.421C32.147 44.389 35.163 43.708 38.739 43.708s6.591.681 9.047 2.043c2.457 1.362 4.322 3.502 5.596 6.421 1.275 2.919 1.923 6.832 1.945 11.738H34.238V82.17H2V63.91h21.15z"/><circle fill="#00758F" cx="85.5" cy="63.91" r="13.273"/></svg>